<svg width="20" height="18" viewBox="0 0 20 18" fill="none" xmlns="http://www.w3.org/2000/svg">
<path d="M1.76367 16.341H3.49094M3.49094 16.341H12.1273M3.49094 16.341V4.42298C3.49094 3.45562 3.49094 2.97158 3.67921 2.6021C3.84481 2.27709 4.10885 2.01304 4.43386 1.84744C4.80334 1.65918 5.28739 1.65918 6.25475 1.65918H9.36384C10.3312 1.65918 10.8142 1.65918 11.1837 1.84744C11.5087 2.01304 11.7736 2.27709 11.9392 2.6021C12.1273 2.97122 12.1273 3.45467 12.1273 4.42015V9.43191M12.1273 16.341H17.3091M12.1273 16.341V9.43191M17.3091 16.341H19.0364M17.3091 16.341V9.43191C17.3091 8.6271 17.309 8.22489 17.1776 7.90747C17.0022 7.48424 16.6663 7.14779 16.2431 6.97248C15.9257 6.841 15.5228 6.841 14.718 6.841C13.9132 6.841 13.5108 6.841 13.1934 6.97248C12.7701 7.14779 12.4341 7.48424 12.2588 7.90747C12.1273 8.22489 12.1273 8.6271 12.1273 9.43191M6.08185 7.70463H9.5364M6.08185 5.11372H9.5364" stroke="#5A5A5A" stroke-width="1.6" stroke-linecap="round" stroke-linejoin="round"/>
</svg>
